  0
SECTION
  2
HEADER
  9
$ACADVER
  1
AC1009
  9
$INSBASE
 10
0.0
 20
0.0
 30
0.0
  9
$EXTMIN
 10
2234.1502243521841
 20
1400.0
 30
0.0
  9
$EXTMAX
 10
2760.3912187088499
 20
2020.5960933246711
 30
0.0
  9
$LIMMIN
 10
0.0
 20
0.0
  9
$LIMMAX
 10
420.0
 20
297.0
  9
$ORTHOMODE
 70
     0
  9
$REGENMODE
 70
     1
  9
$FILLMODE
 70
     1
  9
$QTEXTMODE
 70
     0
  9
$MIRRTEXT
 70
     0
  9
$DRAGMODE
 70
     2
  9
$LTSCALE
 40
1.0
  9
$OSMODE
 70
    39
  9
$ATTMODE
 70
     1
  9
$TEXTSIZE
 40
2.5
  9
$TRACEWID
 40
1.0
  9
$TEXTSTYLE
  7
STANDARD
  9
$CLAYER
  8
0
  9
$CELTYPE
  6
BYLAYER
  9
$CECOLOR
 62
   256
  9
$DIMSCALE
 40
1.0
  9
$DIMASZ
 40
2.5
  9
$DIMEXO
 40
0.625
  9
$DIMDLI
 40
3.75
  9
$DIMRND
 40
0.0
  9
$DIMDLE
 40
0.0
  9
$DIMEXE
 40
1.25
  9
$DIMTP
 40
0.0
  9
$DIMTM
 40
0.0
  9
$DIMTXT
 40
2.5
  9
$DIMCEN
 40
2.5
  9
$DIMTSZ
 40
0.0
  9
$DIMTOL
 70
     0
  9
$DIMLIM
 70
     0
  9
$DIMTIH
 70
     0
  9
$DIMTOH
 70
     0
  9
$DIMSE1
 70
     0
  9
$DIMSE2
 70
     0
  9
$DIMTAD
 70
     1
  9
$DIMZIN
 70
     8
  9
$DIMBLK
  1

  9
$DIMASO
 70
     1
  9
$DIMSHO
 70
     1
  9
$DIMPOST
  1

  9
$DIMAPOST
  1

  9
$DIMALT
 70
     0
  9
$DIMALTD
 70
     3
  9
$DIMALTF
 40
0.03937007874016
  9
$DIMLFAC
 40
1.0
  9
$DIMTOFL
 70
     1
  9
$DIMTVP
 40
0.0
  9
$DIMTIX
 70
     0
  9
$DIMSOXD
 70
     0
  9
$DIMSAH
 70
     0
  9
$DIMBLK1
  1

  9
$DIMBLK2
  1

  9
$DIMSTYLE
  2
ISO-25
  9
$DIMCLRD
 70
     0
  9
$DIMCLRE
 70
     0
  9
$DIMCLRT
 70
     0
  9
$DIMTFAC
 40
1.0
  9
$DIMGAP
 40
0.625
  9
$LUNITS
 70
     2
  9
$LUPREC
 70
     4
  9
$SKETCHINC
 40
1.0
  9
$FILLETRAD
 40
0.0
  9
$AUNITS
 70
     0
  9
$AUPREC
 70
     0
  9
$MENU
  1
.
  9
$ELEVATION
 40
0.0
  9
$PELEVATION
 40
0.0
  9
$THICKNESS
 40
0.0
  9
$LIMCHECK
 70
     0
  9
$BLIPMODE
 70
     0
  9
$CHAMFERA
 40
0.0
  9
$CHAMFERB
 40
0.0
  9
$SKPOLY
 70
     0
  9
$TDCREATE
 40
2457878.5953873731
  9
$TDUPDATE
 40
2457878.67735735
  9
$TDINDWG
 40
0.0676596644
  9
$TDUSRTIMER
 40
0.0676590741
  9
$USRTIMER
 70
     1
  9
$ANGBASE
 50
0.0
  9
$ANGDIR
 70
     0
  9
$PDMODE
 70
     0
  9
$PDSIZE
 40
0.0
  9
$PLINEWID
 40
0.0
  9
$COORDS
 70
     1
  9
$SPLFRAME
 70
     0
  9
$SPLINETYPE
 70
     6
  9
$SPLINESEGS
 70
     8
  9
$ATTDIA
 70
     1
  9
$ATTREQ
 70
     1
  9
$HANDLING
 70
     1
  9
$HANDSEED
  5
888
  9
$SURFTAB1
 70
     6
  9
$SURFTAB2
 70
     6
  9
$SURFTYPE
 70
     6
  9
$SURFU
 70
     6
  9
$SURFV
 70
     6
  9
$UCSNAME
  2

  9
$UCSORG
 10
0.0
 20
0.0
 30
0.0
  9
$UCSXDIR
 10
1.0
 20
0.0
 30
0.0
  9
$UCSYDIR
 10
0.0
 20
1.0
 30
0.0
  9
$PUCSNAME
  2

  9
$PUCSORG
 10
0.0
 20
0.0
 30
0.0
  9
$PUCSXDIR
 10
1.0
 20
0.0
 30
0.0
  9
$PUCSYDIR
 10
0.0
 20
1.0
 30
0.0
  9
$USERI1
 70
     0
  9
$USERI2
 70
     0
  9
$USERI3
 70
     0
  9
$USERI4
 70
     0
  9
$USERI5
 70
     0
  9
$USERR1
 40
0.0
  9
$USERR2
 40
0.0
  9
$USERR3
 40
0.0
  9
$USERR4
 40
0.0
  9
$USERR5
 40
0.0
  9
$WORLDVIEW
 70
     1
  9
$SHADEDGE
 70
     3
  9
$SHADEDIF
 70
    70
  9
$TILEMODE
 70
     1
  9
$MAXACTVP
 70
    64
  9
$PLIMCHECK
 70
     0
  9
$PEXTMIN
 10
0.0
 20
0.0
 30
0.0
  9
$PEXTMAX
 10
0.0
 20
0.0
 30
0.0
  9
$PLIMMIN
 10
0.0
 20
0.0
  9
$PLIMMAX
 10
12.0
 20
9.0
  9
$UNITMODE
 70
     0
  9
$VISRETAIN
 70
     1
  9
$PLINEGEN
 70
     0
  9
$PSLTSCALE
 70
     1
  0
ENDSEC
  0
SECTION
  2
TABLES
  0
TABLE
  2
VPORT
 70
     1
  0
VPORT
  2
*ACTIVE
 70
     0
 10
0.0
 20
0.0
 11
1.0
 21
1.0
 12
2198.3917275472982
 22
1755.997501286949
 13
0.0
 23
0.0
 14
10.0
 24
10.0
 15
10.0
 25
10.0
 16
0.0
 26
0.0
 36
1.0
 17
0.0
 27
0.0
 37
0.0
 40
1041.7718873521201
 41
2.2321867321867321
 42
50.0
 43
0.0
 44
0.0
 50
0.0
 51
0.0
 71
     0
 72
  1000
 73
     1
 74
     3
 75
     0
 76
     0
 77
     0
 78
     0
  0
ENDTAB
  0
TABLE
  2
LTYPE
 70
     2
  0
LTYPE
  2
CONTINUOUS
 70
     0
  3
Solid line
 72
    65
 73
     0
 40
0.0
  0
ENDTAB
  0
TABLE
  2
LAYER
 70
     1
  0
LAYER
  2
0
 70
     0
 62
     7
  6
CONTINUOUS
  0
ENDTAB
  0
TABLE
  2
STYLE
 70
     2
  0
STYLE
  2
STANDARD
 70
     0
 40
0.0
 41
1.0
 50
0.0
 71
     0
 42
2.5
  3
txt
  4

  0
STYLE
  2
ANNOTATIVE
 70
     0
 40
0.0
 41
1.0
 50
0.0
 71
     0
 42
2.5
  3
txt
  4

  0
ENDTAB
  0
TABLE
  2
VIEW
 70
    13
  0
ENDTAB
  0
TABLE
  2
UCS
 70
     0
  0
ENDTAB
  0
TABLE
  2
APPID
 70
     9
  0
APPID
  2
ACAD
 70
     0
  0
APPID
  2
ACAD_PSEXT
 70
     0
  0
APPID
  2
ACADANNOPO
 70
     0
  0
APPID
  2
ACADANNOTATIVE
 70
     0
  0
APPID
  2
ACAD_DSTYLE_DIMJAG
 70
     0
  0
APPID
  2
ACAD_DSTYLE_DIMTALN
 70
     0
  0
APPID
  2
ACAD_MLEADERVER
 70
     0
  0
APPID
  2
ACAD_NAV_VCDISPLAY
 70
     0
  0
APPID
  2
ACAD_EXEMPT_FROM_CAD_STANDARDS
 70
     0
  0
ENDTAB
  0
TABLE
  2
DIMSTYLE
 70
     4
  0
DIMSTYLE
  2
STANDARD
 70
     0
  3

  4

  5

  6

  7

 40
1.0
 41
0.18
 42
0.0625
 43
0.38
 44
0.18
 45
0.0
 46
0.0
 47
0.0
 48
0.0
140
0.18
141
0.09
142
0.0
143
25.399999999999999
144
1.0
145
0.0
146
1.0
147
0.09
 71
     0
 72
     0
 73
     1
 74
     1
 75
     0
 76
     0
 77
     0
 78
     0
170
     0
171
     2
172
     0
173
     0
174
     0
175
     0
176
     0
177
     0
178
     0
  0
DIMSTYLE
  2
ANNOTATIVE
 70
     0
  3

  4

  5

  6

  7

 40
0.0
 41
2.5
 42
0.625
 43
3.75
 44
1.25
 45
0.0
 46
0.0
 47
0.0
 48
0.0
140
2.5
141
2.5
142
0.0
143
0.03937007874016
144
1.0
145
0.0
146
1.0
147
0.625
 71
     0
 72
     0
 73
     0
 74
     0
 75
     0
 76
     0
 77
     1
 78
     8
170
     0
171
     3
172
     1
173
     0
174
     0
175
     0
176
     0
177
     0
178
     0
  0
DIMSTYLE
  2
ISO-25
 70
     0
  3

  4

  5

  6

  7

 40
1.0
 41
2.5
 42
0.625
 43
3.75
 44
1.25
 45
0.0
 46
0.0
 47
0.0
 48
0.0
140
2.5
141
2.5
142
0.0
143
0.03937007874016
144
1.0
145
0.0
146
1.0
147
0.625
 71
     0
 72
     0
 73
     0
 74
     0
 75
     0
 76
     0
 77
     1
 78
     8
170
     0
171
     3
172
     1
173
     0
174
     0
175
     0
176
     0
177
     0
178
     0
  0
ENDTAB
  0
ENDSEC
  0
SECTION
  2
BLOCKS
  0
BLOCK
  8
0
  2
$MODEL_SPACE
 70
     0
 10
0.0
 20
0.0
 30
0.0
  3
$MODEL_SPACE
  1

  0
ENDBLK
  5
21
  8
0
  0
BLOCK
 67
     1
  8
0
  2
$PAPER_SPACE
 70
     0
 10
0.0
 20
0.0
 30
0.0
  3
$PAPER_SPACE
  1

  0
ENDBLK
  5
D5
 67
     1
  8
0
  0
ENDSEC
  0
SECTION
  2
ENTITIES
  0
LINE
  5
26F
  8
0
 10
2458.0019023461582
 20
2010.674647140698
 30
0.0
 11
2508.0019023461568
 21
2010.674647140698
 31
0.0
  0
LINE
  5
270
  8
0
 10
2598.0019023461568
 20
1985.674647140698
 30
0.0
 11
2598.0019023461568
 21
1935.674647140698
 31
0.0
  0
LINE
  5
271
  8
0
 10
2588.0019023461582
 20
1910.674647140698
 30
0.0
 11
2538.0019023461582
 21
1910.674647140698
 31
0.0
  0
LINE
  5
272
  8
0
 10
2448.0019023461568
 20
1935.6746862031509
 30
0.0
 11
2448.0019023461568
 21
1985.674647140698
 31
0.0
  0
LINE
  5
289
  8
0
 10
2299.150224352185
 20
2009.2543508409869
 30
0.0
 11
2329.150224352185
 21
2009.2543508409869
 31
0.0
  0
LINE
  5
28B
  8
0
 10
2379.1502243521841
 20
1909.2543508409869
 30
0.0
 11
2394.150224352185
 21
1909.2543508409869
 31
0.0
  0
LINE
  5
296
  8
0
 10
2750.001656617249
 20
1910.596093324672
 30
0.0
 11
2750.001656617249
 21
1935.596093324672
 31
0.0
  0
LINE
  5
297
  8
0
 10
2750.001656617249
 20
2010.596093324672
 30
0.0
 11
2725.001656617249
 21
2010.596093324672
 31
0.0
  0
LINE
  5
298
  8
0
 10
2650.001656617249
 20
1935.596093324672
 30
0.0
 11
2650.001656617249
 21
1910.596093324672
 31
0.0
  0
LINE
  5
299
  8
0
 10
2725.001656617249
 20
1910.596093324672
 30
0.0
 11
2750.001656617249
 21
1910.596093324672
 31
0.0
  0
LINE
  5
29B
  8
0
 10
2699.0
 20
1940.0
 30
0.0
 11
2699.0
 21
1920.0
 31
0.0
  0
LINE
  5
2A3
  8
0
 10
2709.0
 20
1940.0
 30
0.0
 11
2709.0
 21
1920.0
 31
0.0
  0
LINE
  5
2A4
  8
0
 10
2719.0
 20
1940.0
 30
0.0
 11
2719.0
 21
1920.0
 31
0.0
  0
LINE
  5
2A5
  8
0
 10
2729.0
 20
1940.0
 30
0.0
 11
2729.0
 21
1920.0
 31
0.0
  0
LINE
  5
2A6
  8
0
 10
2739.0
 20
1940.0
 30
0.0
 11
2739.0
 21
1920.0
 31
0.0
  0
LINE
  5
2A7
  8
0
 10
2689.0
 20
1940.0
 30
0.0
 11
2689.0
 21
1920.0
 31
0.0
  0
LINE
  5
2A8
  8
0
 10
2679.0
 20
1940.0
 30
0.0
 11
2679.0
 21
1920.0
 31
0.0
  0
LINE
  5
2A9
  8
0
 10
2669.0
 20
1940.0
 30
0.0
 11
2669.0
 21
1920.0
 31
0.0
  0
LINE
  5
2AA
  8
0
 10
2659.0
 20
1940.0
 30
0.0
 11
2659.0
 21
1920.0
 31
0.0
  0
LINE
  5
2F3
  8
0
 10
2443.0019023461568
 20
2010.674647140698
 30
0.0
 11
2443.0019023461568
 21
1910.674647140698
 31
0.0
  0
LINE
  5
2F4
  8
0
 10
2448.0019023461568
 20
1905.6746471406971
 30
0.0
 11
2598.0019023461568
 21
1905.6746471406971
 31
0.0
  0
LINE
  5
2F5
  8
0
 10
2603.0019023461582
 20
1910.674647140698
 30
0.0
 11
2603.0019023461582
 21
2010.674647140698
 31
0.0
  0
LINE
  5
2F6
  8
0
 10
2598.0019023461568
 20
2015.674647140698
 30
0.0
 11
2448.0019023461568
 21
2015.674647140698
 31
0.0
  0
LINE
  5
2F8
  8
0
 10
2443.0019023461568
 20
2010.674647140698
 30
0.0
 11
2443.0019023461568
 21
2015.674647140698
 31
0.0
  0
LINE
  5
2F9
  8
0
 10
2443.0019023461568
 20
2015.674647140698
 30
0.0
 11
2448.0019023461568
 21
2015.674647140698
 31
0.0
  0
LINE
  5
2FA
  8
0
 10
2598.0019023461568
 20
2015.674647140698
 30
0.0
 11
2603.0019023461582
 21
2015.674647140698
 31
0.0
  0
LINE
  5
2FB
  8
0
 10
2661.0
 20
1940.0
 30
0.0
 11
2661.0
 21
1920.0
 31
0.0
  0
LINE
  5
2FC
  8
0
 10
2671.0
 20
1940.0
 30
0.0
 11
2671.0
 21
1920.0
 31
0.0
  0
LINE
  5
2FD
  8
0
 10
2681.0
 20
1940.0
 30
0.0
 11
2681.0
 21
1920.0
 31
0.0
  0
LINE
  5
2FE
  8
0
 10
2691.0
 20
1940.0
 30
0.0
 11
2691.0
 21
1920.0
 31
0.0
  0
LINE
  5
2FF
  8
0
 10
2701.0
 20
1940.0
 30
0.0
 11
2701.0
 21
1920.0
 31
0.0
  0
LINE
  5
300
  8
0
 10
2711.0
 20
1940.0
 30
0.0
 11
2711.0
 21
1920.0
 31
0.0
  0
LINE
  5
301
  8
0
 10
2721.0
 20
1940.0
 30
0.0
 11
2721.0
 21
1920.0
 31
0.0
  0
LINE
  5
302
  8
0
 10
2731.0
 20
1940.0
 30
0.0
 11
2731.0
 21
1920.0
 31
0.0
  0
LINE
  5
303
  8
0
 10
2741.0
 20
1940.0
 30
0.0
 11
2741.0
 21
1920.0
 31
0.0
  0
LINE
  5
305
  8
0
 10
2661.0
 20
1920.0
 30
0.0
 11
2659.0
 21
1920.0
 31
0.0
  0
LINE
  5
307
  8
0
 10
2671.0
 20
1920.0
 30
0.0
 11
2669.0
 21
1920.0
 31
0.0
  0
LINE
  5
308
  8
0
 10
2681.0
 20
1920.0
 30
0.0
 11
2679.0
 21
1920.0
 31
0.0
  0
LINE
  5
309
  8
0
 10
2701.0
 20
1920.0
 30
0.0
 11
2699.0
 21
1920.0
 31
0.0
  0
LINE
  5
30F
  8
0
 10
2681.0
 20
1920.0
 30
0.0
 11
2679.0
 21
1920.0
 31
0.0
  0
LINE
  5
310
  8
0
 10
2691.0
 20
1920.0
 30
0.0
 11
2689.0
 21
1920.0
 31
0.0
  0
LINE
  5
311
  8
0
 10
2721.0
 20
1920.0
 30
0.0
 11
2719.0
 21
1920.0
 31
0.0
  0
LINE
  5
312
  8
0
 10
2711.0
 20
1920.0
 30
0.0
 11
2709.0
 21
1920.0
 31
0.0
  0
LINE
  5
313
  8
0
 10
2731.0
 20
1920.0
 30
0.0
 11
2729.0
 21
1920.0
 31
0.0
  0
LINE
  5
314
  8
0
 10
2741.0
 20
1920.0
 30
0.0
 11
2739.0
 21
1920.0
 31
0.0
  0
LINE
  5
317
  8
0
 10
2659.0
 20
1940.0
 30
0.0
 11
2661.0
 21
1940.0
 31
0.0
  0
LINE
  5
318
  8
0
 10
2669.0
 20
1940.0
 30
0.0
 11
2671.0
 21
1940.0
 31
0.0
  0
LINE
  5
319
  8
0
 10
2681.0
 20
1940.0
 30
0.0
 11
2679.0
 21
1940.0
 31
0.0
  0
LINE
  5
31A
  8
0
 10
2691.0
 20
1940.0
 30
0.0
 11
2689.0
 21
1940.0
 31
0.0
  0
LINE
  5
31B
  8
0
 10
2701.0
 20
1940.0
 30
0.0
 11
2699.0
 21
1940.0
 31
0.0
  0
LINE
  5
31C
  8
0
 10
2711.0
 20
1940.0
 30
0.0
 11
2709.0
 21
1940.0
 31
0.0
  0
LINE
  5
31D
  8
0
 10
2721.0
 20
1940.0
 30
0.0
 11
2719.0
 21
1940.0
 31
0.0
  0
LINE
  5
31E
  8
0
 10
2731.0
 20
1940.0
 30
0.0
 11
2729.0
 21
1940.0
 31
0.0
  0
LINE
  5
31F
  8
0
 10
2741.0
 20
1940.0
 30
0.0
 11
2739.0
 21
1940.0
 31
0.0
  0
LINE
  5
366
  8
0
 10
2603.0019023461582
 20
2010.674647140698
 30
0.0
 11
2603.0019023461582
 21
2015.674647140698
 31
0.0
  0
LINE
  5
367
  8
0
 10
2603.0019023461582
 20
1910.674647140698
 30
0.0
 11
2603.0019023461582
 21
1905.6746471406971
 31
0.0
  0
LINE
  5
368
  8
0
 10
2443.0019023461568
 20
1910.674647140698
 30
0.0
 11
2443.0019023461568
 21
1905.6746471406971
 31
0.0
  0
LINE
  5
369
  8
0
 10
2443.0019023461568
 20
1905.6746471406971
 30
0.0
 11
2448.0019023461568
 21
1905.6746471406971
 31
0.0
  0
LINE
  5
36A
  8
0
 10
2598.0019023461568
 20
1905.6746471406971
 30
0.0
 11
2603.0019023461582
 21
1905.6746471406971
 31
0.0
  0
LINE
  5
3B7
  8
0
 10
2234.1502243521841
 20
1909.2543508409869
 30
0.0
 11
2234.1502243521841
 21
2009.2543508409869
 31
0.0
  0
LINE
  5
3B8
  8
0
 10
2394.150224352185
 20
2009.2543508409869
 30
0.0
 11
2394.150224352185
 21
1909.2543508409869
 31
0.0
  0
LINE
  5
455
  8
0
 10
2234.1502243521841
 20
2009.2543508409869
 30
0.0
 11
2249.150224352185
 21
2009.2543508409869
 31
0.0
  0
LINE
  5
456
  8
0
 10
2249.150224352185
 20
2009.2543508409869
 30
0.0
 11
2249.150224352185
 21
2019.2543508409869
 31
0.0
  0
LINE
  5
457
  8
0
 10
2249.150224352185
 20
2019.2543508409869
 30
0.0
 11
2299.150224352185
 21
2019.2543508409869
 31
0.0
  0
LINE
  5
458
  8
0
 10
2299.150224352185
 20
2019.2543508409869
 30
0.0
 11
2299.150224352185
 21
2009.2543508409869
 31
0.0
  0
LINE
  5
459
  8
0
 10
2299.150224352185
 20
2009.2543508409869
 30
0.0
 11
2329.150224352185
 21
2009.2543508409869
 31
0.0
  0
LINE
  5
45A
  8
0
 10
2329.150224352185
 20
2009.2543508409869
 30
0.0
 11
2329.150224352185
 21
2019.2543508409869
 31
0.0
  0
LINE
  5
45B
  8
0
 10
2329.150224352185
 20
2019.2543508409869
 30
0.0
 11
2379.1502243521841
 21
2019.2543508409869
 31
0.0
  0
LINE
  5
45C
  8
0
 10
2379.1502243521841
 20
2019.2543508409869
 30
0.0
 11
2379.1502243521841
 21
2009.2543508409869
 31
0.0
  0
LINE
  5
45D
  8
0
 10
2234.1502243521841
 20
1909.2543508409869
 30
0.0
 11
2249.150224352185
 21
1909.2543508409869
 31
0.0
  0
LINE
  5
45E
  8
0
 10
2249.150224352185
 20
1909.2543508409869
 30
0.0
 11
2249.150224352185
 21
1899.2543508409869
 31
0.0
  0
LINE
  5
45F
  8
0
 10
2249.150224352185
 20
1899.2543508409869
 30
0.0
 11
2299.150224352185
 21
1899.2543508409869
 31
0.0
  0
LINE
  5
460
  8
0
 10
2299.150224352185
 20
1899.2543508409869
 30
0.0
 11
2299.150224352185
 21
1909.2543508409869
 31
0.0
  0
LINE
  5
461
  8
0
 10
2299.150224352185
 20
1909.2543508409869
 30
0.0
 11
2329.150224352185
 21
1909.2543508409869
 31
0.0
  0
LINE
  5
462
  8
0
 10
2329.150224352185
 20
1909.2543508409869
 30
0.0
 11
2329.150224352185
 21
1899.2543508409869
 31
0.0
  0
LINE
  5
463
  8
0
 10
2329.150224352185
 20
1899.2543508409869
 30
0.0
 11
2379.1502243521841
 21
1899.2543508409869
 31
0.0
  0
LINE
  5
464
  8
0
 10
2379.1502243521841
 20
1899.2543508409869
 30
0.0
 11
2379.1502243521841
 21
1909.2543508409869
 31
0.0
  0
LINE
  5
466
  8
0
 10
2458.0019023461582
 20
2010.674647140698
 30
0.0
 11
2458.0019023461582
 21
2013.0746471406981
 31
0.0
  0
LINE
  5
467
  8
0
 10
2458.0019023461582
 20
2013.0746471406981
 30
0.0
 11
2508.0019023461568
 21
2013.0746471406981
 31
0.0
  0
LINE
  5
468
  8
0
 10
2508.0019023461568
 20
2013.0746471406981
 30
0.0
 11
2508.0019023461568
 21
2010.674647140698
 31
0.0
  0
LINE
  5
469
  8
0
 10
2588.0019023461582
 20
2010.674647140698
 30
0.0
 11
2538.0019023461582
 21
2010.674647140698
 31
0.0
  0
LINE
  5
46A
  8
0
 10
2538.0019023461582
 20
2010.674647140698
 30
0.0
 11
2538.0019023461582
 21
2013.0746471406981
 31
0.0
  0
LINE
  5
46B
  8
0
 10
2538.0019023461582
 20
2013.0746471406981
 30
0.0
 11
2588.0019023461582
 21
2013.0746471406981
 31
0.0
  0
LINE
  5
46C
  8
0
 10
2588.0019023461582
 20
2013.0746471406981
 30
0.0
 11
2588.0019023461582
 21
2010.674647140698
 31
0.0
  0
LINE
  5
46D
  8
0
 10
2508.0019023461568
 20
1910.674647140698
 30
0.0
 11
2458.0019023461582
 21
1910.674647140698
 31
0.0
  0
LINE
  5
46E
  8
0
 10
2458.0019023461582
 20
1910.674647140698
 30
0.0
 11
2458.0019023461582
 21
1908.2746471406981
 31
0.0
  0
LINE
  5
46F
  8
0
 10
2458.0019023461582
 20
1908.2746471406981
 30
0.0
 11
2508.0019023461568
 21
1908.2746471406981
 31
0.0
  0
LINE
  5
470
  8
0
 10
2508.0019023461568
 20
1908.2746471406981
 30
0.0
 11
2508.0019023461568
 21
1910.674647140698
 31
0.0
  0
LINE
  5
472
  8
0
 10
2538.0019023461582
 20
1910.674647140698
 30
0.0
 11
2538.0019023461582
 21
1908.2746471406981
 31
0.0
  0
LINE
  5
473
  8
0
 10
2538.0019023461582
 20
1908.2746471406981
 30
0.0
 11
2588.0019023461582
 21
1908.2746471406981
 31
0.0
  0
LINE
  5
474
  8
0
 10
2588.0019023461582
 20
1908.2746471406981
 30
0.0
 11
2588.0019023461582
 21
1910.674647140698
 31
0.0
  0
LINE
  5
4BB
  8
0
 10
2650.001656617249
 20
2010.596093324672
 30
0.0
 11
2650.001656617249
 21
1985.5960933246711
 31
0.0
  0
LINE
  5
4BC
  8
0
 10
2650.001656617249
 20
1985.5960933246711
 30
0.0
 11
2640.001656617249
 21
1985.5960933246711
 31
0.0
  0
LINE
  5
4BD
  8
0
 10
2640.001656617249
 20
1985.5960933246711
 30
0.0
 11
2640.001656617249
 21
1935.596093324672
 31
0.0
  0
LINE
  5
4BE
  8
0
 10
2640.001656617249
 20
1935.596093324672
 30
0.0
 11
2650.001656617249
 21
1935.596093324672
 31
0.0
  0
LINE
  5
4BF
  8
0
 10
2650.001656617249
 20
2010.596093324672
 30
0.0
 11
2675.001656617249
 21
2010.596093324672
 31
0.0
  0
LINE
  5
4C0
  8
0
 10
2675.001656617249
 20
2010.596093324672
 30
0.0
 11
2675.001656617249
 21
2020.5960933246711
 31
0.0
  0
LINE
  5
4C1
  8
0
 10
2675.001656617249
 20
2020.5960933246711
 30
0.0
 11
2725.001656617249
 21
2020.5960933246711
 31
0.0
  0
LINE
  5
4C2
  8
0
 10
2725.001656617249
 20
2020.5960933246711
 30
0.0
 11
2725.001656617249
 21
2010.596093324672
 31
0.0
  0
LINE
  5
4C3
  8
0
 10
2750.001656617249
 20
2010.596093324672
 30
0.0
 11
2750.001656617249
 21
1985.5960933246711
 31
0.0
  0
LINE
  5
4C4
  8
0
 10
2750.001656617249
 20
1985.5960933246711
 30
0.0
 11
2760.001656617249
 21
1985.5960933246711
 31
0.0
  0
LINE
  5
4C5
  8
0
 10
2760.001656617249
 20
1985.5960933246711
 30
0.0
 11
2760.001656617249
 21
1935.596093324672
 31
0.0
  0
LINE
  5
4C6
  8
0
 10
2760.001656617249
 20
1935.596093324672
 30
0.0
 11
2750.001656617249
 21
1935.596093324672
 31
0.0
  0
LINE
  5
4C7
  8
0
 10
2650.001656617249
 20
1910.596093324672
 30
0.0
 11
2675.001656617249
 21
1910.596093324672
 31
0.0
  0
LINE
  5
4C9
  8
0
 10
2675.001656617249
 20
1910.596093324672
 30
0.0
 11
2675.001656617249
 21
1900.5960933246711
 31
0.0
  0
LINE
  5
4CA
  8
0
 10
2675.001656617249
 20
1900.5960933246711
 30
0.0
 11
2675.001656617249
 21
1900.5960933246711
 31
0.0
  0
LINE
  5
4CB
  8
0
 10
2675.001656617249
 20
1900.5960933246711
 30
0.0
 11
2725.001656617249
 21
1900.5960933246711
 31
0.0
  0
LINE
  5
4CC
  8
0
 10
2725.001656617249
 20
1900.5960933246711
 30
0.0
 11
2725.001656617249
 21
1910.596093324672
 31
0.0
  0
LINE
  5
4CE
  8
0
 10
2239.150224352185
 20
1984.2543508409869
 30
0.0
 11
2236.7502243521849
 21
1984.2543508409869
 31
0.0
  0
LINE
  5
4CF
  8
0
 10
2236.7502243521849
 20
1984.2543508409869
 30
0.0
 11
2236.7502243521849
 21
1934.2543508409869
 31
0.0
  0
LINE
  5
4D0
  8
0
 10
2236.7502243521849
 20
1934.2543508409869
 30
0.0
 11
2239.150224352185
 21
1934.2543508409869
 31
0.0
  0
LINE
  5
4D1
  8
0
 10
2389.150224352185
 20
1934.2543508409869
 30
0.0
 11
2389.150224352185
 21
1984.2543508409869
 31
0.0
  0
LINE
  5
4D2
  8
0
 10
2389.150224352185
 20
1984.2543508409869
 30
0.0
 11
2391.5502243521851
 21
1984.2543508409869
 31
0.0
  0
LINE
  5
4D3
  8
0
 10
2391.5502243521851
 20
1984.2543508409869
 30
0.0
 11
2391.5502243521851
 21
1934.2543508409869
 31
0.0
  0
LINE
  5
4D4
  8
0
 10
2391.5502243521851
 20
1934.2543508409869
 30
0.0
 11
2389.150224352185
 21
1934.2543508409869
 31
0.0
  0
LINE
  5
4D5
  8
0
 10
2239.150224352185
 20
1984.2543508409869
 30
0.0
 11
2239.150224352185
 21
1934.2543508409869
 31
0.0
  0
LINE
  5
4D6
  8
0
 10
2379.1502243521841
 20
2009.2543508409869
 30
0.0
 11
2394.150224352185
 21
2009.2543508409869
 31
0.0
  0
LINE
  5
51E
  8
0
 10
2448.0019023461568
 20
1985.674647140698
 30
0.0
 11
2445.6019023461572
 21
1985.674647140698
 31
0.0
  0
LINE
  5
51F
  8
0
 10
2445.6019023461572
 20
1985.674647140698
 30
0.0
 11
2445.5394023949848
 21
1935.6746862031509
 31
0.0
  0
LINE
  5
520
  8
0
 10
2445.5394023949848
 20
1935.6746862031509
 30
0.0
 11
2448.0019023461568
 21
1935.6746862031509
 31
0.0
  0
LINE
  5
523
  8
0
 10
2598.0019023461568
 20
1985.674647140698
 30
0.0
 11
2600.4019023461569
 21
1985.674647140698
 31
0.0
  0
LINE
  5
524
  8
0
 10
2600.4019023461569
 20
1985.674647140698
 30
0.0
 11
2600.4019023461569
 21
1935.674647140698
 31
0.0
  0
LINE
  5
525
  8
0
 10
2600.4019023461569
 20
1935.674647140698
 30
0.0
 11
2598.0019023461568
 21
1935.674647140698
 31
0.0
  0
LINE
  5
633
  8
0
 10
2458.3914644377592
 20
1826.5116080674929
 30
0.0
 11
2508.3914644377592
 21
1826.5116080674929
 31
0.0
  0
LINE
  5
634
  8
0
 10
2598.3914644377592
 20
1801.5116080674929
 30
0.0
 11
2598.3914644377592
 21
1751.5116080674929
 31
0.0
  0
LINE
  5
635
  8
0
 10
2588.3914644377592
 20
1726.5116080674929
 30
0.0
 11
2538.3914644377592
 21
1726.5116080674929
 31
0.0
  0
LINE
  5
636
  8
0
 10
2448.3914644377592
 20
1751.5116471299471
 30
0.0
 11
2448.3914644377592
 21
1801.5116080674929
 31
0.0
  0
LINE
  5
637
  8
0
 10
2299.5397864437859
 20
1825.0913117677819
 30
0.0
 11
2329.5397864437859
 21
1825.0913117677819
 31
0.0
  0
LINE
  5
638
  8
0
 10
2394.5397864437859
 20
1825.0913117677819
 30
0.0
 11
2394.5397864437859
 21
1725.0913117677819
 31
0.0
  0
LINE
  5
639
  8
0
 10
2379.5397864437859
 20
1725.0913117677819
 30
0.0
 11
2394.5397864437859
 21
1725.0913117677819
 31
0.0
  0
LINE
  5
63A
  8
0
 10
2234.5397864437859
 20
1725.0913117677819
 30
0.0
 11
2234.5397864437859
 21
1825.0913117677819
 31
0.0
  0
LINE
  5
63B
  8
0
 10
2750.3912187088508
 20
1726.433054251466
 30
0.0
 11
2750.3912187088508
 21
1751.433054251467
 31
0.0
  0
LINE
  5
63C
  8
0
 10
2750.3912187088508
 20
1826.433054251467
 30
0.0
 11
2725.3912187088499
 21
1826.433054251467
 31
0.0
  0
LINE
  5
63D
  8
0
 10
2650.3912187088499
 20
1751.433054251467
 30
0.0
 11
2650.3912187088499
 21
1726.433054251466
 31
0.0
  0
LINE
  5
63E
  8
0
 10
2725.3912187088499
 20
1726.433054251466
 30
0.0
 11
2750.3912187088508
 21
1726.433054251466
 31
0.0
  0
LINE
  5
651
  8
0
 10
2443.3914644377592
 20
1826.5116080674929
 30
0.0
 11
2443.3914644377592
 21
1726.5116080674929
 31
0.0
  0
LINE
  5
652
  8
0
 10
2448.3914644377592
 20
1721.511608067492
 30
0.0
 11
2598.3914644377592
 21
1721.511608067492
 31
0.0
  0
LINE
  5
653
  8
0
 10
2603.3914644377592
 20
1726.5116080674929
 30
0.0
 11
2603.3914644377592
 21
1826.5116080674929
 31
0.0
  0
LINE
  5
654
  8
0
 10
2598.3914644377592
 20
1831.5116080674929
 30
0.0
 11
2448.3914644377592
 21
1831.5116080674929
 31
0.0
  0
LINE
  5
655
  8
0
 10
2443.3914644377592
 20
1826.5116080674929
 30
0.0
 11
2443.3914644377592
 21
1831.5116080674929
 31
0.0
  0
LINE
  5
656
  8
0
 10
2443.3914644377592
 20
1831.5116080674929
 30
0.0
 11
2448.3914644377592
 21
1831.5116080674929
 31
0.0
  0
LINE
  5
657
  8
0
 10
2598.3914644377592
 20
1831.5116080674929
 30
0.0
 11
2603.3914644377592
 21
1831.5116080674929
 31
0.0
  0
LINE
  5
66B
  8
0
 10
2603.3914644377592
 20
1826.5116080674929
 30
0.0
 11
2603.3914644377592
 21
1831.5116080674929
 31
0.0
  0
LINE
  5
66C
  8
0
 10
2603.3914644377592
 20
1726.5116080674929
 30
0.0
 11
2603.3914644377592
 21
1721.511608067492
 31
0.0
  0
LINE
  5
66D
  8
0
 10
2443.3914644377592
 20
1726.5116080674929
 30
0.0
 11
2443.3914644377592
 21
1721.511608067492
 31
0.0
  0
LINE
  5
66E
  8
0
 10
2443.3914644377592
 20
1721.511608067492
 30
0.0
 11
2448.3914644377592
 21
1721.511608067492
 31
0.0
  0
LINE
  5
66F
  8
0
 10
2598.3914644377592
 20
1721.511608067492
 30
0.0
 11
2603.3914644377592
 21
1721.511608067492
 31
0.0
  0
LINE
  5
670
  8
0
 10
2234.5397864437859
 20
1825.0913117677819
 30
0.0
 11
2249.5397864437859
 21
1825.0913117677819
 31
0.0
  0
LINE
  5
671
  8
0
 10
2249.5397864437859
 20
1825.0913117677819
 30
0.0
 11
2249.5397864437859
 21
1835.0913117677819
 31
0.0
  0
LINE
  5
672
  8
0
 10
2249.5397864437859
 20
1835.0913117677819
 30
0.0
 11
2299.5397864437859
 21
1835.0913117677819
 31
0.0
  0
LINE
  5
673
  8
0
 10
2299.5397864437859
 20
1835.0913117677819
 30
0.0
 11
2299.5397864437859
 21
1825.0913117677819
 31
0.0
  0
LINE
  5
674
  8
0
 10
2299.5397864437859
 20
1825.0913117677819
 30
0.0
 11
2329.5397864437859
 21
1825.0913117677819
 31
0.0
  0
LINE
  5
675
  8
0
 10
2329.5397864437859
 20
1825.0913117677819
 30
0.0
 11
2329.5397864437859
 21
1835.0913117677819
 31
0.0
  0
LINE
  5
676
  8
0
 10
2329.5397864437859
 20
1835.0913117677819
 30
0.0
 11
2379.5397864437859
 21
1835.0913117677819
 31
0.0
  0
LINE
  5
677
  8
0
 10
2379.5397864437859
 20
1835.0913117677819
 30
0.0
 11
2379.5397864437859
 21
1825.0913117677819
 31
0.0
  0
LINE
  5
678
  8
0
 10
2234.5397864437859
 20
1725.0913117677819
 30
0.0
 11
2249.5397864437859
 21
1725.0913117677819
 31
0.0
  0
LINE
  5
679
  8
0
 10
2249.5397864437859
 20
1725.0913117677819
 30
0.0
 11
2249.5397864437859
 21
1715.0913117677819
 31
0.0
  0
LINE
  5
67A
  8
0
 10
2249.5397864437859
 20
1715.0913117677819
 30
0.0
 11
2299.5397864437859
 21
1715.0913117677819
 31
0.0
  0
LINE
  5
67B
  8
0
 10
2299.5397864437859
 20
1715.0913117677819
 30
0.0
 11
2299.5397864437859
 21
1725.0913117677819
 31
0.0
  0
LINE
  5
67C
  8
0
 10
2299.5397864437859
 20
1725.0913117677819
 30
0.0
 11
2329.5397864437859
 21
1725.0913117677819
 31
0.0
  0
LINE
  5
67D
  8
0
 10
2329.5397864437859
 20
1725.0913117677819
 30
0.0
 11
2329.5397864437859
 21
1715.0913117677819
 31
0.0
  0
LINE
  5
67E
  8
0
 10
2329.5397864437859
 20
1715.0913117677819
 30
0.0
 11
2379.5397864437859
 21
1715.0913117677819
 31
0.0
  0
LINE
  5
67F
  8
0
 10
2379.5397864437859
 20
1715.0913117677819
 30
0.0
 11
2379.5397864437859
 21
1725.0913117677819
 31
0.0
  0
LINE
  5
680
  8
0
 10
2458.3914644377592
 20
1826.5116080674929
 30
0.0
 11
2458.3914644377592
 21
1828.911608067493
 31
0.0
  0
LINE
  5
681
  8
0
 10
2458.3914644377592
 20
1828.911608067493
 30
0.0
 11
2508.3914644377592
 21
1828.911608067493
 31
0.0
  0
LINE
  5
682
  8
0
 10
2508.3914644377592
 20
1828.911608067493
 30
0.0
 11
2508.3914644377592
 21
1826.5116080674929
 31
0.0
  0
LINE
  5
683
  8
0
 10
2588.3914644377592
 20
1826.5116080674929
 30
0.0
 11
2538.3914644377592
 21
1826.5116080674929
 31
0.0
  0
LINE
  5
684
  8
0
 10
2538.3914644377592
 20
1826.5116080674929
 30
0.0
 11
2538.3914644377592
 21
1828.911608067493
 31
0.0
  0
LINE
  5
685
  8
0
 10
2538.3914644377592
 20
1828.911608067493
 30
0.0
 11
2588.3914644377592
 21
1828.911608067493
 31
0.0
  0
LINE
  5
686
  8
0
 10
2588.3914644377592
 20
1828.911608067493
 30
0.0
 11
2588.3914644377592
 21
1826.5116080674929
 31
0.0
  0
LINE
  5
687
  8
0
 10
2508.3914644377592
 20
1726.5116080674929
 30
0.0
 11
2458.3914644377592
 21
1726.5116080674929
 31
0.0
  0
LINE
  5
688
  8
0
 10
2458.3914644377592
 20
1726.5116080674929
 30
0.0
 11
2458.3914644377592
 21
1724.1116080674931
 31
0.0
  0
LINE
  5
689
  8
0
 10
2458.3914644377592
 20
1724.1116080674931
 30
0.0
 11
2508.3914644377592
 21
1724.1116080674931
 31
0.0
  0
LINE
  5
68A
  8
0
 10
2508.3914644377592
 20
1724.1116080674931
 30
0.0
 11
2508.3914644377592
 21
1726.5116080674929
 31
0.0
  0
LINE
  5
68B
  8
0
 10
2538.3914644377592
 20
1726.5116080674929
 30
0.0
 11
2538.3914644377592
 21
1724.1116080674931
 31
0.0
  0
LINE
  5
68C
  8
0
 10
2538.3914644377592
 20
1724.1116080674931
 30
0.0
 11
2588.3914644377592
 21
1724.1116080674931
 31
0.0
  0
LINE
  5
68D
  8
0
 10
2588.3914644377592
 20
1724.1116080674931
 30
0.0
 11
2588.3914644377592
 21
1726.5116080674929
 31
0.0
  0
LINE
  5
68E
  8
0
 10
2650.3912187088499
 20
1826.433054251467
 30
0.0
 11
2650.3912187088499
 21
1801.433054251466
 31
0.0
  0
LINE
  5
68F
  8
0
 10
2650.3912187088499
 20
1801.433054251466
 30
0.0
 11
2640.3912187088508
 21
1801.433054251466
 31
0.0
  0
LINE
  5
690
  8
0
 10
2640.3912187088508
 20
1801.433054251466
 30
0.0
 11
2640.3912187088508
 21
1751.433054251467
 31
0.0
  0
LINE
  5
691
  8
0
 10
2640.3912187088508
 20
1751.433054251467
 30
0.0
 11
2650.3912187088499
 21
1751.433054251467
 31
0.0
  0
LINE
  5
692
  8
0
 10
2650.3912187088499
 20
1826.433054251467
 30
0.0
 11
2675.3912187088499
 21
1826.433054251467
 31
0.0
  0
LINE
  5
693
  8
0
 10
2675.3912187088499
 20
1826.433054251467
 30
0.0
 11
2675.3912187088499
 21
1836.433054251467
 31
0.0
  0
LINE
  5
694
  8
0
 10
2675.3912187088499
 20
1836.433054251467
 30
0.0
 11
2725.3912187088499
 21
1836.433054251467
 31
0.0
  0
LINE
  5
695
  8
0
 10
2725.3912187088499
 20
1836.433054251467
 30
0.0
 11
2725.3912187088499
 21
1826.433054251467
 31
0.0
  0
LINE
  5
696
  8
0
 10
2750.3912187088508
 20
1826.433054251467
 30
0.0
 11
2750.3912187088508
 21
1801.433054251466
 31
0.0
  0
LINE
  5
697
  8
0
 10
2750.3912187088508
 20
1801.433054251466
 30
0.0
 11
2760.3912187088499
 21
1801.433054251466
 31
0.0
  0
LINE
  5
698
  8
0
 10
2760.3912187088499
 20
1801.433054251466
 30
0.0
 11
2760.3912187088499
 21
1751.433054251467
 31
0.0
  0
LINE
  5
699
  8
0
 10
2760.3912187088499
 20
1751.433054251467
 30
0.0
 11
2750.3912187088508
 21
1751.433054251467
 31
0.0
  0
LINE
  5
69A
  8
0
 10
2650.3912187088499
 20
1726.433054251466
 30
0.0
 11
2675.3912187088499
 21
1726.433054251466
 31
0.0
  0
LINE
  5
69B
  8
0
 10
2675.3912187088499
 20
1726.433054251466
 30
0.0
 11
2675.3912187088499
 21
1716.433054251467
 31
0.0
  0
LINE
  5
69C
  8
0
 10
2675.3912187088499
 20
1716.433054251467
 30
0.0
 11
2675.3912187088499
 21
1716.433054251467
 31
0.0
  0
LINE
  5
69D
  8
0
 10
2675.3912187088499
 20
1716.433054251467
 30
0.0
 11
2725.3912187088499
 21
1716.433054251467
 31
0.0
  0
LINE
  5
69E
  8
0
 10
2725.3912187088499
 20
1716.433054251467
 30
0.0
 11
2725.3912187088499
 21
1726.433054251466
 31
0.0
  0
LINE
  5
69F
  8
0
 10
2239.5397864437859
 20
1800.0913117677819
 30
0.0
 11
2237.1397864437859
 21
1800.0913117677819
 31
0.0
  0
LINE
  5
6A0
  8
0
 10
2237.1397864437859
 20
1800.0913117677819
 30
0.0
 11
2237.1397864437859
 21
1750.0913117677819
 31
0.0
  0
LINE
  5
6A1
  8
0
 10
2237.1397864437859
 20
1750.0913117677819
 30
0.0
 11
2239.5397864437859
 21
1750.0913117677819
 31
0.0
  0
LINE
  5
6A2
  8
0
 10
2389.5397864437859
 20
1750.0913117677819
 30
0.0
 11
2389.5397864437859
 21
1800.0913117677819
 31
0.0
  0
LINE
  5
6A3
  8
0
 10
2389.5397864437859
 20
1800.0913117677819
 30
0.0
 11
2391.939786443786
 21
1800.0913117677819
 31
0.0
  0
LINE
  5
6A4
  8
0
 10
2391.939786443786
 20
1800.0913117677819
 30
0.0
 11
2391.939786443786
 21
1750.0913117677819
 31
0.0
  0
LINE
  5
6A5
  8
0
 10
2391.939786443786
 20
1750.0913117677819
 30
0.0
 11
2389.5397864437859
 21
1750.0913117677819
 31
0.0
  0
LINE
  5
6A6
  8
0
 10
2239.5397864437859
 20
1800.0913117677819
 30
0.0
 11
2239.5397864437859
 21
1750.0913117677819
 31
0.0
  0
LINE
  5
6A7
  8
0
 10
2379.5397864437859
 20
1825.0913117677819
 30
0.0
 11
2394.5397864437859
 21
1825.0913117677819
 31
0.0
  0
LINE
  5
6A8
  8
0
 10
2448.3914644377592
 20
1801.5116080674929
 30
0.0
 11
2445.9914644377591
 21
1801.5116080674929
 31
0.0
  0
LINE
  5
6A9
  8
0
 10
2445.9914644377591
 20
1801.5116080674929
 30
0.0
 11
2445.9289644865871
 21
1751.5116471299471
 31
0.0
  0
LINE
  5
6AA
  8
0
 10
2445.9289644865871
 20
1751.5116471299471
 30
0.0
 11
2448.3914644377592
 21
1751.5116471299471
 31
0.0
  0
LINE
  5
6AB
  8
0
 10
2598.3914644377592
 20
1801.5116080674929
 30
0.0
 11
2600.7914644377588
 21
1801.5116080674929
 31
0.0
  0
LINE
  5
6AC
  8
0
 10
2600.7914644377588
 20
1801.5116080674929
 30
0.0
 11
2600.7914644377588
 21
1751.5116080674929
 31
0.0
  0
LINE
  5
6AD
  8
0
 10
2600.7914644377588
 20
1751.5116080674929
 30
0.0
 11
2598.3914644377592
 21
1751.5116080674929
 31
0.0
  0
CIRCLE
  5
6AE
  8
0
 10
2700.3912187088499
 20
1776.433054251467
 30
0.0
 40
4.0
  0
CIRCLE
  5
6AF
  8
0
 10
2700.3912187088499
 20
1600.0
 30
0.0
 40
50.0
  0
CIRCLE
  5
6B0
  8
0
 10
2520.0
 20
1590.0
 30
0.0
 40
12.0
  0
CIRCLE
  5
6B1
  8
0
 10
2520.0
 20
1590.0
 30
0.0
 40
4.0
  0
CIRCLE
  5
6B2
  8
0
 10
2700.3912187088499
 20
1600.0
 30
0.0
 40
4.0
  0
CIRCLE
  5
6F9
  8
0
 10
2700.0
 20
1450.0
 30
0.0
 40
50.0
  0
CIRCLE
  5
6FA
  8
0
 10
2700.0
 20
1450.0
 30
0.0
 40
3.9500000000000002
  0
CIRCLE
  5
6FB
  8
0
 10
2420.0
 20
1600.0
 30
0.0
 40
12.0
  0
CIRCLE
  5
6FC
  8
0
 10
2420.0
 20
1600.0
 30
0.0
 40
3.9500000000000002
  0
CIRCLE
  5
747
  8
0
 10
2520.5019023461582
 20
1960.674647140698
 30
0.0
 40
5.0
  0
LINE
  5
748
  8
0
 10
2341.5502243521851
 20
1984.2543508409869
 30
0.0
 11
2341.5502243521851
 21
1934.2543508409869
 31
0.0
  0
LINE
  5
749
  8
0
 10
2339.1502243521841
 20
1934.2543508409869
 30
0.0
 11
2339.1502243521841
 21
1984.2543508409869
 31
0.0
  0
LINE
  5
74A
  8
0
 10
2339.5397864437859
 20
1750.0913117677819
 30
0.0
 11
2339.5397864437859
 21
1800.0913117677819
 31
0.0
  0
LINE
  5
74B
  8
0
 10
2341.939786443786
 20
1800.0913117677819
 30
0.0
 11
2341.939786443786
 21
1750.0913117677819
 31
0.0
  0
LINE
  5
74C
  8
0
 10
2550.4019023461578
 20
1985.674647140698
 30
0.0
 11
2550.4019023461578
 21
1935.674647140698
 31
0.0
  0
LINE
  5
74D
  8
0
 10
2550.4019023461578
 20
1985.674647140698
 30
0.0
 11
2550.4019023461578
 21
1935.674647140698
 31
0.0
  0
LINE
  5
74E
  8
0
 10
2550.4019023461578
 20
1985.674647140698
 30
0.0
 11
2550.4019023461578
 21
1935.674647140698
 31
0.0
  0
LINE
  5
795
  8
0
 10
2550.4019023461578
 20
1985.674647140698
 30
0.0
 11
2550.4019023461578
 21
1935.674647140698
 31
0.0
  0
LINE
  5
796
  8
0
 10
2548.0019023461568
 20
1985.674647140698
 30
0.0
 11
2548.0019023461568
 21
1935.674647140698
 31
0.0
  0
LINE
  5
797
  8
0
 10
2548.3914644377592
 20
1801.5116080674929
 30
0.0
 11
2548.3914644377592
 21
1751.5116080674929
 31
0.0
  0
LINE
  5
798
  8
0
 10
2550.7914644377588
 20
1801.5116080674929
 30
0.0
 11
2550.7914644377588
 21
1751.5116080674929
 31
0.0
  0
LINE
  5
79C
  8
0
 10
2341.5502243521851
 20
1984.2543508409869
 30
0.0
 11
2341.5502243521851
 21
1984.2543508409869
 31
0.0
  0
LINE
  5
79D
  8
0
 10
2339.1502243521841
 20
1984.2543508409869
 30
0.0
 11
2341.5502243521851
 21
1984.2543508409869
 31
0.0
  0
LINE
  5
79E
  8
0
 10
2341.5502243521851
 20
1934.2543508409869
 30
0.0
 11
2339.1502243521841
 21
1934.2543508409869
 31
0.0
  0
LINE
  5
79F
  8
0
 10
2548.0019023461568
 20
1985.674647140698
 30
0.0
 11
2550.4019023461578
 21
1985.674647140698
 31
0.0
  0
LINE
  5
7A0
  8
0
 10
2548.0019023461568
 20
1935.674647140698
 30
0.0
 11
2550.4019023461578
 21
1935.674647140698
 31
0.0
  0
LINE
  5
7A1
  8
0
 10
2341.939786443786
 20
1800.0913117677819
 30
0.0
 11
2339.5397864437859
 21
1800.0913117677819
 31
0.0
  0
LINE
  5
7A2
  8
0
 10
2341.939786443786
 20
1750.0913117677819
 30
0.0
 11
2339.5397864437859
 21
1750.0913117677819
 31
0.0
  0
LINE
  5
7A3
  8
0
 10
2550.7914644377588
 20
1751.5116080674929
 30
0.0
 11
2548.3914644377592
 21
1751.5116080674929
 31
0.0
  0
LINE
  5
7A4
  8
0
 10
2550.7914644377588
 20
1801.5116080674929
 30
0.0
 11
2548.3914644377592
 21
1801.5116080674929
 31
0.0
  0
ENDSEC
  0
EOF
